<?xml version="1.0" standalone="no"?>
<!DOCTYPE svg PUBLIC "-//W3C//DTD SVG 20010904//EN"
 "http://www.w3.org/TR/2001/REC-SVG-20010904/DTD/svg10.dtd">
<svg version="1.0" xmlns="http://www.w3.org/2000/svg"
 width="567.000000pt" height="569.000000pt" viewBox="0 0 567.000000 569.000000"
 preserveAspectRatio="xMidYMid meet">

<g transform="translate(0.000000,569.000000) scale(0.100000,-0.100000)"
fill="#000000" stroke="none">
<path d="M559 4463 c-13 -16 -12 -17 4 -4 9 7 17 15 17 17 0 8 -8 3 -21 -13z"/>
<path d="M530 4419 c-7 -11 -10 -23 -7 -25 2 -2 9 7 15 21 14 30 7 33 -8 4z"/>
<path d="M490 4359 c0 -5 -4 -8 -9 -4 -5 3 -12 2 -15 -3 -2 -4 4 -9 15 -9 10
-1 19 5 19 13 0 8 -2 14 -5 14 -3 0 -5 -5 -5 -11z"/>
<path d="M445 4296 c-43 -44 -67 -85 -59 -99 4 -7 4 -9 -1 -5 -10 10 -119
-203 -167 -327 -260 -669 -262 -1364 -6 -2040 167 -439 483 -876 853 -1175
304 -247 706 -449 1081 -543 267 -67 394 -82 704 -82 301 1 388 11 659 75 177
43 487 155 531 192 10 9 20 15 22 12 2 -2 37 14 76 34 40 21 69 41 65 45 -3 4
2 7 12 7 22 0 105 47 105 59 0 5 18 16 40 25 28 11 38 20 34 31 -4 8 -1 15 7
15 7 0 9 3 6 6 -4 4 -14 1 -22 -6 -13 -11 -13 -15 -3 -22 9 -7 6 -8 -9 -5 -12
3 -30 -2 -40 -12 -10 -9 -31 -22 -46 -29 -15 -6 -26 -16 -22 -21 3 -5 0 -13
-6 -17 -8 -4 -9 -3 -5 4 17 28 -71 -3 -99 -34 -5 -6 -34 -20 -62 -30 -29 -10
-53 -22 -53 -27 0 -4 -5 -5 -11 -1 -6 3 -24 -3 -39 -15 -16 -11 -35 -18 -43
-15 -8 3 -21 -2 -30 -10 -9 -9 -20 -16 -26 -16 -6 0 -59 -16 -118 -35 -59 -19
-109 -33 -111 -30 -3 3 -15 -1 -26 -9 -12 -7 -39 -16 -61 -19 -22 -2 -83 -14
-135 -26 -52 -12 -103 -20 -112 -17 -10 2 -18 0 -18 -5 0 -5 -20 -9 -44 -9
-24 0 -68 -5 -97 -10 -84 -17 -485 -14 -614 4 -193 27 -279 44 -447 90 -319
87 -666 264 -941 479 -54 43 -103 77 -109 77 -6 0 -9 3 -5 6 3 3 -20 29 -51
57 -217 194 -430 465 -570 723 -36 66 -92 188 -92 200 0 8 -3 14 -8 14 -4 0
-12 15 -19 33 -78 219 -114 331 -132 409 -35 147 -39 168 -51 253 -6 44 -16
109 -22 145 -18 109 -5 538 22 705 22 139 33 198 50 265 5 19 17 68 27 108 11
40 22 70 25 66 4 -3 4 3 1 15 -3 13 -1 21 7 21 7 0 10 8 7 20 -3 11 -1 18 4
14 5 -3 9 4 9 15 0 11 8 40 19 63 44 101 51 120 46 129 -4 5 -3 9 2 9 4 0 19
27 33 59 13 33 27 58 30 56 3 -2 7 6 7 17 1 12 8 25 15 30 10 8 10 11 1 15 -7
2 -13 10 -13 16 0 5 3 8 6 4 4 -3 12 -1 18 6 15 15 58 89 54 92 -2 1 -16 -12
-33 -29z m3865 -3850 c0 -2 -7 -7 -16 -10 -8 -3 -12 -2 -9 4 6 10 25 14 25 6z"/>
<path d="M3307 3353 c-42 -27 -305 -200 -584 -387 -825 -552 -831 -555 -966
-563 -108 -6 -221 17 -490 102 -312 98 -374 134 -365 211 4 30 2 34 -6 19 -6
-10 -36 -45 -66 -78 -78 -84 -103 -131 -101 -184 1 -51 47 -153 68 -153 9 0
24 -9 34 -21 15 -18 120 -56 206 -76 13 -3 23 -9 23 -13 0 -12 105 -29 252
-40 148 -12 205 -7 296 29 29 12 62 21 72 21 11 0 20 7 20 15 0 8 6 15 14 15
7 0 19 7 26 15 7 8 18 15 26 15 19 0 135 71 141 87 3 7 16 13 29 13 13 0 24 5
24 10 0 6 5 10 10 10 12 0 73 41 78 53 2 4 11 7 20 8 12 0 13 2 4 6 -16 6 15
32 39 33 9 0 28 12 43 26 15 15 40 28 57 29 32 3 46 11 37 21 -4 3 -17 1 -30
-6 -22 -11 -22 -10 -4 4 11 9 26 16 34 16 7 0 10 5 6 12 -5 7 -3 8 5 4 7 -5
20 -2 29 6 9 8 34 23 55 33 22 11 44 27 51 37 6 9 27 21 46 26 19 6 27 11 17
11 -10 1 -15 6 -12 11 9 15 21 12 41 -7 17 -17 18 -17 11 -1 -5 13 2 22 24 33
16 9 27 20 24 24 -2 5 4 11 15 14 11 3 17 1 14 -4 -3 -5 16 4 42 21 26 16 51
30 55 30 5 0 20 11 35 25 14 13 30 22 35 19 5 -2 26 4 48 16 22 11 56 20 76
20 19 0 35 5 35 10 0 6 -10 10 -22 10 -12 0 -19 3 -15 6 3 4 18 4 32 0 23 -6
25 -11 25 -56 0 -52 6 -59 30 -37 8 6 -1 -6 -20 -28 -43 -49 -50 -54 -65 -49
-6 3 -18 -2 -25 -11 -9 -11 -9 -15 -1 -15 7 0 9 -5 6 -10 -4 -6 -12 -7 -18 -4
-7 4 -9 3 -4 -1 9 -11 -23 -46 -35 -39 -4 3 -7 2 -6 -3 2 -4 -62 -73 -142
-152 -157 -157 -132 -140 45 30 259 248 674 651 721 701 57 58 72 91 54 113
-23 28 -73 17 -153 -32z m-437 -587 c0 -3 -4 -8 -10 -11 -5 -3 -10 -1 -10 4 0
6 5 11 10 11 6 0 10 -2 10 -4z"/>
<path d="M2900 2829 c0 -5 5 -7 10 -4 6 3 10 8 10 11 0 2 -4 4 -10 4 -5 0 -10
-5 -10 -11z"/>
<path d="M2445 2350 c-16 -16 -26 -32 -23 -35 2 -3 19 11 37 30 38 43 26 47
-14 5z"/>
<path d="M2394 2285 c-4 -8 -12 -15 -19 -15 -8 0 -12 -9 -9 -22 2 -13 2 -18
-1 -11 -6 11 -85 -66 -85 -83 0 -5 -16 -26 -35 -47 -19 -21 -35 -42 -35 -46 0
-5 -7 -21 -15 -37 -8 -16 -12 -37 -10 -49 2 -11 7 -47 10 -79 8 -84 57 -186
90 -186 5 0 36 -22 68 -49 31 -28 67 -53 80 -56 42 -12 67 -28 67 -44 0 -9 12
-22 28 -29 47 -21 75 -40 84 -56 5 -9 16 -16 24 -16 8 0 24 -9 36 -20 12 -11
28 -20 35 -20 7 0 13 -6 13 -12 0 -7 19 -24 43 -37 23 -13 66 -42 94 -63 29
-21 67 -41 84 -45 19 -3 34 -14 36 -24 3 -10 14 -21 24 -24 11 -4 30 -17 43
-30 32 -31 68 -49 175 -85 201 -66 336 -30 506 135 22 22 53 46 68 54 15 8 25
16 23 18 -2 3 -15 -1 -28 -8 -12 -7 -52 -12 -88 -12 -122 1 -212 47 -534 272
-100 70 -275 191 -391 270 -353 241 -404 292 -391 388 3 26 14 55 23 65 10 11
12 18 4 18 -6 0 -14 -7 -17 -15z"/>
<path d="M4423 523 c0 -8 6 -9 19 -2 10 5 18 11 18 12 0 2 -8 3 -18 3 -10 0
-19 -6 -19 -13z"/>
</g>
</svg>
