<?xml version="1.0" standalone="no"?>
<!DOCTYPE svg PUBLIC "-//W3C//DTD SVG 20010904//EN"
 "http://www.w3.org/TR/2001/REC-SVG-20010904/DTD/svg10.dtd">
<svg version="1.0" xmlns="http://www.w3.org/2000/svg"
 width="840.000000pt" height="551.000000pt" viewBox="0 0 840.000000 551.000000"
 preserveAspectRatio="xMidYMid meet">

<g transform="translate(0.000000,551.000000) scale(0.100000,-0.100000)"
fill="#000000" stroke="none">
<path d="M3895 5074 c-627 -85 -1196 -417 -1566 -914 -113 -152 -159 -227
-240 -393 -156 -319 -229 -645 -229 -1019 0 -374 73 -691 233 -1022 347 -713
1021 -1197 1810 -1301 137 -18 423 -20 565 -4 408 45 808 205 1150 461 124 93
357 326 448 448 250 335 405 713 460 1120 18 141 18 448 -1 597 -83 630 -415
1201 -915 1574 -152 113 -227 159 -393 240 -224 109 -462 180 -720 214 -145
19 -461 18 -602 -1z m745 -904 c440 -78 668 -218 805 -495 130 -263 170 -741
100 -1195 -59 -380 -260 -626 -600 -733 -217 -68 -438 -99 -740 -102 -126 -1
-233 -3 -236 -4 -3 0 -65 -67 -137 -148 -73 -82 -147 -158 -165 -171 -39 -26
-93 -29 -125 -6 -46 32 -52 61 -52 247 l0 173 -52 19 c-348 122 -539 385 -600
825 -20 147 -17 556 6 705 46 303 128 482 285 627 150 138 414 236 751 277 41
6 201 8 355 6 234 -2 300 -6 405 -25z"/>
<path d="M3851 3964 c-157 -22 -296 -60 -401 -111 -79 -38 -108 -59 -175 -127
-86 -86 -129 -156 -164 -266 -84 -263 -93 -752 -20 -1038 47 -186 165 -338
324 -419 44 -22 91 -44 105 -48 61 -18 60 -15 60 -291 0 -168 4 -255 11 -259
15 -10 33 8 231 237 98 114 186 212 196 217 9 5 116 11 237 14 445 10 724 88
882 244 108 107 156 215 200 453 26 139 26 574 0 715 -78 423 -249 582 -717
665 -164 29 -605 38 -769 14z m442 -284 c291 -34 530 -233 616 -514 28 -93 47
-260 32 -292 -14 -31 -46 -31 -66 -1 -8 13 -21 72 -29 132 -8 61 -25 139 -37
174 -30 88 -109 202 -183 263 -96 80 -259 148 -356 148 -47 0 -105 17 -120 35
-11 13 -9 20 10 40 27 29 19 28 133 15z m-532 -107 c49 -50 197 -261 209 -298
17 -53 6 -79 -66 -157 -60 -63 -66 -72 -60 -101 18 -92 120 -254 208 -332 62
-54 197 -124 255 -132 40 -5 44 -3 111 60 39 37 82 69 96 73 37 9 109 -29 237
-124 120 -90 149 -122 149 -166 0 -78 -135 -231 -226 -256 -44 -13 -53 -12
-113 9 -109 37 -320 144 -431 219 -199 133 -351 285 -475 475 -68 104 -211
400 -227 466 -9 42 -8 52 15 97 28 54 126 152 185 184 48 26 97 20 133 -17z
m629 -100 c179 -49 315 -195 353 -378 8 -40 11 -90 8 -115 -5 -40 -9 -45 -35
-48 -16 -2 -33 1 -38 6 -6 6 -14 47 -19 92 -10 102 -48 188 -112 252 -56 55
-149 105 -215 113 -80 10 -91 15 -108 40 -16 24 -15 27 2 46 20 22 63 20 164
-8z m33 -199 c73 -37 113 -93 132 -184 10 -45 9 -59 -3 -77 -16 -26 -44 -30
-61 -10 -6 8 -15 37 -21 65 -16 87 -51 122 -135 137 -55 10 -75 22 -75 45 0
49 87 62 163 24z"/>
</g>
</svg>
