<?xml version="1.0" standalone="no"?>
<!DOCTYPE svg PUBLIC "-//W3C//DTD SVG 20010904//EN"
 "http://www.w3.org/TR/2001/REC-SVG-20010904/DTD/svg10.dtd">
<svg version="1.0" xmlns="http://www.w3.org/2000/svg"
 width="946.000000pt" height="604.000000pt" viewBox="0 0 946.000000 604.000000"
 preserveAspectRatio="xMidYMid meet">

<g transform="translate(0.000000,604.000000) scale(0.100000,-0.100000)"
fill="#000000" stroke="none">
<path d="M5288 5922 c-49 -10 -91 -22 -95 -25 -11 -12 28 -8 96 10 59 14 81
15 201 3 74 -6 139 -16 145 -21 6 -6 6 -9 0 -9 -6 0 -64 -2 -130 -5 -183 -6
-345 -55 -359 -108 -3 -13 -14 -33 -23 -44 -17 -19 -139 -81 -250 -128 -23
-10 -44 -24 -47 -31 -8 -20 -1 -18 65 21 33 19 72 38 87 41 15 4 32 10 37 14
15 12 165 60 184 60 23 -1 -34 -50 -58 -50 -9 0 -22 -5 -28 -11 -12 -12 -60
-38 -163 -91 -36 -18 -69 -39 -73 -45 -4 -7 -17 -13 -27 -13 -11 0 -20 -4 -20
-10 0 -5 -19 -18 -42 -30 -44 -21 -55 -27 -124 -72 -42 -27 -138 -103 -184
-145 -14 -13 -28 -23 -32 -23 -4 0 -43 -36 -88 -80 -45 -44 -78 -80 -74 -80 4
0 37 24 73 53 130 104 408 303 456 327 17 8 48 27 70 41 60 39 211 104 285
122 287 71 604 38 868 -90 56 -28 102 -48 102 -46 0 7 -57 60 -72 67 -7 3 -26
15 -43 25 -16 11 -38 20 -47 20 -10 1 -18 5 -18 10 0 5 -24 16 -52 26 -29 9
-55 20 -58 24 -6 9 -116 39 -185 51 -75 13 -138 34 -143 48 -5 17 111 16 138
0 15 -9 23 -10 28 -2 10 14 38 24 47 16 4 -4 10 -7 13 -7 20 -2 135 -51 192
-82 67 -38 210 -140 210 -151 1 -10 110 -128 110 -119 0 48 -203 268 -288 312
-20 10 -48 26 -62 35 -14 9 -50 24 -80 35 -30 10 -57 21 -60 24 -5 7 -68 34
-104 45 -28 10 -7 26 41 33 28 4 67 -4 139 -27 262 -86 415 -206 484 -381 17
-40 23 -83 27 -169 3 -63 9 -119 13 -124 5 -5 14 11 20 34 14 53 34 40 32 -21
-6 -145 -137 -323 -396 -534 -26 -22 -76 -63 -110 -91 -87 -72 -284 -212 -395
-279 -289 -176 -699 -209 -934 -76 -20 11 -53 30 -73 41 -34 20 -170 113 -262
181 -65 48 -112 94 -112 109 0 11 3 11 12 2 17 -17 31 -15 24 4 -3 9 -2 12 5
9 5 -4 7 -15 4 -25 -4 -13 2 -24 20 -36 14 -9 28 -14 32 -11 3 4 -2 9 -11 13
-9 3 -16 11 -16 17 0 6 11 0 25 -13 47 -44 36 -12 -14 39 -116 119 -139 261
-61 372 18 24 19 29 6 29 -23 0 -20 12 21 71 53 78 105 131 218 221 99 78 132
105 210 170 22 18 44 36 50 40 5 4 26 20 45 36 19 16 50 37 68 47 17 11 32 25
32 32 0 15 -50 -6 -85 -37 -11 -9 -42 -29 -70 -45 -81 -46 -285 -205 -363
-282 -40 -40 -94 -89 -120 -110 -26 -21 -53 -46 -60 -55 -19 -26 -45 -11 -37
20 25 98 279 345 560 543 50 35 96 69 102 75 7 7 51 36 98 64 84 52 101 65 68
53 -21 -8 -166 -93 -173 -102 -3 -4 -59 -44 -125 -90 -242 -170 -524 -425
-594 -538 -18 -29 -38 -51 -44 -50 -14 3 -35 -67 -36 -122 -2 -103 56 -232
152 -337 76 -84 270 -223 502 -361 66 -39 130 -83 143 -98 63 -72 75 -120 46
-177 -11 -22 -15 -46 -11 -78 4 -30 1 -55 -8 -71 -8 -13 -18 -33 -24 -44 -16
-34 -218 -218 -377 -345 -67 -54 -230 -186 -234 -191 -3 -3 -77 -63 -165 -134
-88 -70 -174 -140 -191 -154 -17 -14 -40 -33 -50 -41 -32 -25 -249 -204 -254
-210 -3 -3 -21 -17 -42 -32 -20 -15 -42 -34 -50 -41 -23 -23 -279 -225 -322
-254 -23 -16 -50 -36 -61 -47 -20 -18 -19 -18 53 -13 91 7 95 -9 5 -18 -66 -7
-72 -11 -193 -98 -117 -85 -258 -199 -488 -392 -139 -117 -163 -135 -186 -135
-20 0 -126 -94 -126 -111 0 -4 -6 -14 -13 -21 -20 -21 -97 -179 -97 -199 0
-44 -74 -127 -231 -259 -109 -92 -276 -252 -314 -301 -38 -48 -167 -153 -411
-333 -102 -74 -214 -174 -214 -189 0 -5 13 1 29 12 16 12 40 20 53 19 26 -2
115 29 138 48 8 6 35 22 60 34 93 47 383 228 607 379 256 172 319 210 345 211
10 0 22 9 28 20 6 12 21 20 36 20 60 0 308 141 334 191 6 10 23 25 40 33 16 9
44 23 60 32 17 8 30 19 30 22 0 4 11 19 25 34 l25 27 -122 3 -123 3 50 31 c44
27 214 159 271 210 12 10 50 44 85 74 35 30 82 71 104 90 22 19 69 60 105 90
35 30 78 71 95 90 106 123 174 182 175 153 1 -5 3 -25 6 -46 7 -49 -11 -134
-38 -173 -11 -16 -35 -39 -52 -51 -29 -18 -365 -297 -376 -312 -3 -3 -21 -18
-42 -33 -48 -36 -68 -57 -68 -71 0 -6 6 -4 13 5 12 16 107 71 112 66 10 -10
-126 -128 -147 -128 -5 0 -6 -5 -3 -10 3 -5 -1 -10 -10 -10 -8 0 -18 -7 -21
-15 -4 -8 -10 -13 -14 -10 -9 5 -50 -41 -50 -56 0 -20 58 -5 177 47 17 8 37
14 45 14 7 0 51 14 98 31 47 17 159 56 250 87 91 30 219 75 285 100 137 51
342 122 460 159 44 13 96 31 115 39 19 7 98 32 175 54 153 44 359 109 560 175
72 24 204 67 295 95 91 28 235 73 320 100 85 27 205 65 265 84 160 50 199 55
380 47 173 -8 210 -18 277 -71 20 -17 43 -30 50 -30 12 0 76 -77 87 -105 2 -5
12 -21 21 -35 10 -14 30 -47 45 -75 15 -27 43 -71 61 -96 19 -26 34 -51 34
-55 0 -5 13 -23 28 -41 15 -17 46 -58 69 -90 63 -88 166 -176 237 -203 14 -5
26 -14 26 -20 0 -5 9 -10 20 -10 11 0 20 -7 20 -15 0 -11 5 -12 25 -5 15 6 26
6 30 0 4 -6 1 -10 -4 -10 -6 0 -11 -5 -11 -10 0 -6 24 -10 59 -8 45 2 65 -2
79 -15 10 -9 25 -17 33 -17 8 0 20 -9 27 -20 8 -13 23 -20 42 -20 20 0 30 -5
30 -15 0 -19 41 -29 87 -22 20 4 44 2 55 -4 13 -7 28 -5 52 6 36 17 87 17 93
0 2 -6 -12 -17 -29 -25 -25 -11 -63 -14 -152 -12 -65 1 -124 6 -130 10 -6 5
-46 16 -88 27 -43 10 -78 22 -78 26 0 4 -18 10 -40 14 -22 4 -40 11 -40 16 0
5 -7 9 -15 9 -9 0 -28 6 -43 14 -15 7 -38 17 -52 21 -24 7 -24 6 5 -22 41 -37
57 -47 145 -89 112 -54 170 -72 296 -91 106 -16 121 -16 231 0 65 9 152 26
193 36 170 44 326 88 355 101 11 5 52 18 90 31 176 55 476 179 620 256 28 15
60 32 72 38 13 5 23 13 23 18 0 4 5 7 10 7 27 0 280 211 280 232 0 5 -15 -5
-32 -22 -18 -16 -41 -33 -50 -36 -10 -3 -18 -12 -18 -20 0 -8 -4 -14 -8 -14
-5 0 -17 -8 -28 -18 -10 -9 -31 -23 -46 -29 -16 -7 -28 -17 -28 -23 0 -5 -8
-10 -17 -10 -10 -1 -47 -16 -83 -35 -36 -19 -99 -52 -140 -72 -41 -21 -77 -41
-80 -45 -5 -7 -128 -55 -165 -64 -11 -3 -29 -10 -40 -15 -11 -4 -56 -22 -100
-40 -44 -17 -84 -34 -90 -38 -5 -4 -37 -13 -70 -20 -33 -7 -69 -16 -80 -21
-66 -30 -336 -93 -397 -94 -26 0 -45 -3 -43 -7 7 -11 -31 -17 -46 -8 -10 6
-11 9 -2 9 7 0 19 16 27 35 8 19 22 35 31 35 10 0 13 5 9 12 -4 7 -3 8 4 4 7
-4 22 0 34 8 12 9 35 16 50 16 14 0 39 5 55 11 15 6 45 11 67 11 25 0 34 3 25
9 -10 6 -7 9 11 9 28 0 77 15 305 95 198 69 338 122 370 139 17 9 34 16 38 16
10 0 168 79 227 113 59 35 42 34 -61 -4 -46 -17 -138 -51 -204 -74 -66 -23
-147 -52 -180 -64 -166 -59 -504 -153 -673 -187 -98 -19 -348 -30 -382 -16
l-25 11 30 2 c17 1 33 1 36 1 4 -1 58 5 120 13 343 44 827 200 1213 389 224
110 356 208 453 337 47 62 67 108 99 227 2 7 8 10 14 7 38 -23 -42 -254 -129
-376 -42 -59 -126 -144 -178 -182 -24 -17 -41 -32 -40 -34 7 -6 111 17 121 27
6 6 18 10 28 10 10 0 22 8 25 18 11 30 55 82 69 82 7 0 20 13 28 29 9 16 22
31 31 35 9 3 14 10 10 15 -3 6 4 27 15 48 11 21 20 51 20 68 0 16 5 48 10 70
6 22 15 87 20 145 12 128 -7 261 -52 360 -36 80 -135 211 -203 268 -27 23 -68
59 -90 78 -49 45 -155 114 -215 141 -91 42 -139 61 -171 68 -19 4 -38 11 -44
15 -31 25 -226 48 -405 49 -111 1 -163 -5 -365 -38 -54 -9 -225 -54 -290 -76
-22 -8 -132 -46 -245 -85 -198 -69 -630 -212 -815 -270 -123 -39 -684 -219
-715 -230 -14 -5 -133 -43 -265 -85 -132 -42 -265 -85 -295 -95 -30 -10 -104
-34 -165 -53 -60 -19 -283 -91 -495 -160 -439 -143 -836 -270 -896 -288 -23
-6 -54 -22 -69 -35 -35 -30 -105 -32 -157 -6 -20 11 -57 25 -82 32 -26 7 -49
17 -52 22 -3 4 -2 34 2 66 7 63 1 55 144 172 41 34 91 76 110 94 19 17 69 59
110 93 41 33 84 69 95 79 11 11 36 31 55 45 19 15 46 37 60 49 14 12 58 50 99
84 40 33 121 102 180 151 58 50 118 100 132 110 15 11 94 76 176 145 81 69
180 151 218 182 39 31 83 71 100 89 16 17 74 67 130 109 55 43 116 93 137 112
20 18 44 40 55 48 150 123 234 195 327 280 51 46 255 221 345 295 13 11 45 38
70 60 26 22 86 72 135 110 259 205 427 360 438 403 5 19 3 21 -20 15 -15 -3
-29 -9 -32 -13 -3 -3 -20 -15 -37 -25 -18 -11 -33 -23 -33 -28 0 -4 -4 -5 -10
-2 -5 3 -10 1 -10 -4 0 -6 -7 -11 -15 -11 -8 0 -15 -4 -15 -10 0 -5 -12 -16
-27 -24 -16 -8 -43 -29 -60 -46 -18 -17 -33 -28 -33 -24 0 4 -15 -8 -34 -27
-18 -19 -38 -35 -44 -36 -6 -2 -22 -14 -36 -28 -14 -14 -30 -25 -37 -25 -6 0
-9 -7 -6 -14 4 -10 1 -13 -9 -9 -7 3 -14 1 -14 -4 0 -5 -13 -17 -30 -26 -16
-10 -35 -23 -42 -30 -7 -7 -35 -30 -63 -52 -27 -22 -66 -54 -85 -72 -70 -63
-89 -75 -112 -68 -18 5 -20 4 -8 -5 13 -9 11 -14 -13 -35 -16 -14 -25 -29 -22
-35 3 -5 0 -8 -7 -5 -7 3 -40 -18 -73 -46 -33 -28 -80 -68 -105 -89 -25 -21
-81 -69 -125 -106 -44 -37 -79 -72 -77 -78 2 -6 0 -8 -3 -4 -10 10 -96 -62
-89 -73 3 -5 -2 -6 -10 -3 -8 3 -36 -14 -69 -43 -29 -26 -79 -67 -111 -91 -31
-24 -54 -48 -50 -53 9 -15 -17 -40 -36 -34 -12 4 -26 -5 -43 -24 -21 -25 -26
-28 -31 -14 -6 15 -9 14 -29 -5 -17 -18 -19 -24 -9 -31 10 -6 8 -12 -10 -23
-39 -26 -68 -55 -68 -67 0 -7 -4 -9 -10 -6 -5 3 -22 -5 -37 -19 -15 -15 -32
-26 -36 -26 -5 0 -7 -7 -4 -14 4 -10 1 -13 -7 -10 -7 3 -19 -2 -26 -11 -14
-17 -45 -21 -34 -3 4 7 3 8 -5 4 -6 -4 -9 -11 -6 -16 10 -16 -12 -45 -48 -65
-23 -12 -33 -23 -29 -33 3 -9 1 -13 -5 -9 -16 10 -132 -86 -126 -105 2 -4 -4
-5 -13 -1 -9 3 -13 12 -9 21 5 12 1 12 -15 -3 -24 -22 -25 -26 -5 -19 8 4 15
2 15 -4 0 -13 -26 -23 -44 -16 -9 3 -13 -1 -13 -13 1 -11 -5 -18 -15 -18 -9 0
-20 -4 -24 -8 -4 -4 -2 -7 4 -7 7 0 12 -5 12 -11 0 -7 -10 -9 -25 -5 -15 4
-25 2 -25 -4 0 -6 5 -8 10 -5 6 3 10 1 10 -4 0 -6 -6 -11 -12 -11 -7 -1 -31
-19 -53 -40 -37 -37 -76 -55 -59 -28 4 7 3 8 -5 4 -6 -4 -9 -12 -6 -17 8 -13
-33 -69 -50 -69 -8 0 -22 -11 -31 -25 -16 -24 -53 -37 -38 -13 4 7 3 8 -5 4
-6 -4 -9 -11 -7 -15 8 -12 -51 -51 -67 -45 -9 3 -26 -7 -41 -22 -27 -29 -28
-46 -1 -24 13 11 14 10 9 -4 -6 -17 -16 -20 -48 -16 -11 1 -15 -3 -11 -9 3 -6
-4 -15 -18 -20 -13 -5 -38 -23 -55 -41 -18 -17 -32 -29 -32 -27 0 8 -230 -192
-277 -240 -12 -13 -31 -23 -43 -23 -21 0 -27 19 -10 36 6 6 12 20 14 31 5 26
58 75 296 277 14 11 55 46 90 76 36 31 99 82 140 115 41 32 77 62 80 65 3 3
59 50 125 103 66 54 140 115 164 135 24 20 54 43 65 51 12 8 37 28 57 45 19
17 57 49 84 71 27 22 54 46 61 53 7 6 17 12 22 12 6 0 12 3 14 8 2 6 103 93
233 202 16 14 43 38 60 55 30 29 126 113 390 339 77 66 145 125 151 131 67 62
105 94 204 171 63 49 140 107 170 129 51 36 275 212 430 337 94 76 256 235
301 295 22 29 48 57 59 63 68 37 -59 -169 -167 -271 -71 -66 -69 -69 7 -10
116 89 188 193 230 330 111 356 -239 769 -740 872 -140 29 -351 34 -462 11z
m-1211 -1204 c-2 -13 -4 -3 -4 22 0 25 2 35 4 23 2 -13 2 -33 0 -45z m28 -136
c-3 -3 -11 0 -18 7 -9 10 -8 11 6 5 10 -3 15 -9 12 -12z m4225 -1301 c36 -5
80 -15 98 -22 30 -13 11 -14 -175 -14 -191 0 -219 -2 -338 -28 -366 -79 -826
-254 -984 -375 -39 -29 -28 -41 18 -18 38 20 47 20 31 1 -7 -8 -18 -15 -24
-15 -6 0 -31 -13 -54 -29 -24 -16 -52 -27 -62 -24 -51 13 -201 -120 -267 -237
-20 -36 -51 -79 -70 -97 -27 -26 -33 -39 -33 -72 0 -22 -5 -43 -11 -46 -5 -4
-9 -19 -7 -33 2 -15 -1 -27 -7 -27 -6 0 -9 23 -8 53 1 43 -1 52 -15 52 -15 1
-15 3 2 15 11 8 15 15 9 15 -8 0 -9 10 -2 32 5 18 9 46 9 63 0 16 7 43 15 59
8 15 15 35 15 42 0 8 5 14 10 14 6 0 10 7 10 17 0 9 19 41 41 71 129 170 297
256 889 455 389 131 680 178 910 148z m376 -146 c132 -50 273 -154 358 -264
102 -132 135 -234 137 -415 1 -136 -18 -241 -58 -320 -30 -60 -127 -156 -219
-217 -64 -43 -332 -178 -414 -209 -19 -7 -48 -19 -65 -26 -235 -101 -567 -200
-849 -255 -62 -12 -250 -14 -326 -3 -40 5 -123 27 -215 55 -16 5 -43 20 -60
34 -26 21 -27 24 -10 25 16 0 17 2 5 9 -8 6 -18 7 -22 5 -4 -3 -8 -1 -8 4 0 5
-40 49 -88 98 -48 49 -105 116 -127 148 -62 96 -133 237 -148 296 -17 65 -12
202 9 242 8 15 14 33 14 40 0 25 82 133 129 169 25 20 73 51 106 69 33 18 76
41 95 51 34 18 124 56 245 104 194 76 287 107 401 135 71 17 158 37 194 46
119 29 323 36 560 19 147 -10 269 -42 407 -106 76 -36 97 -37 59 -4 -16 14
-35 25 -42 25 -6 0 -36 18 -65 40 -30 22 -59 40 -66 40 -7 0 -23 11 -35 25
-12 14 -28 25 -36 25 -8 0 -40 12 -70 26 -30 14 -71 28 -91 31 -20 4 -39 11
-42 16 -4 5 -30 12 -58 15 -28 2 -49 8 -46 12 3 4 25 5 50 2 25 -2 51 0 58 6
7 6 28 9 47 7 19 -1 70 -6 113 -10 78 -8 99 1 60 24 -37 22 46 11 113 -14z
m-461 -15 c-3 -5 -13 -10 -21 -10 -8 0 -14 5 -14 10 0 6 9 10 21 10 11 0 17
-4 14 -10z m-545 -30 c-8 -5 -19 -10 -25 -10 -5 0 -3 5 5 10 8 5 20 10 25 10
6 0 3 -5 -5 -10z m210 2 c0 -13 -92 -34 -103 -23 -10 10 4 15 63 24 14 3 28 5
33 6 4 0 7 -3 7 -7z m-140 -30 c0 -11 -71 -31 -89 -24 -9 4 -1 10 25 18 48 15
64 16 64 6z m-381 -66 c-2 -2 -29 -14 -59 -26 -30 -12 -50 -16 -44 -10 6 6 29
18 50 25 39 14 61 19 53 11z m121 -11 c-14 -8 -32 -14 -42 -15 -9 0 -18 -5
-20 -11 -2 -5 -11 -7 -22 -3 -14 5 -7 11 31 24 60 22 86 24 53 5z m-92 -35
c29 0 -1 -17 -43 -25 l-40 -7 20 21 c10 12 25 19 33 16 7 -3 21 -5 30 -5z
m-178 -14 c-19 -7 -67 -27 -106 -44 -40 -16 -87 -33 -105 -36 -19 -4 4 9 51
30 121 52 152 63 175 63 12 0 7 -5 -15 -13z m-253 -162 c-3 -3 -12 -4 -19 -1
-8 3 -5 6 6 6 11 1 17 -2 13 -5z m-37 -24 c0 -5 -6 -10 -12 -10 -7 0 -33 -14
-57 -30 -24 -17 -47 -28 -50 -24 -3 3 2 10 11 15 9 5 24 16 32 24 8 8 21 15
30 15 8 0 18 5 21 10 3 6 10 10 16 10 5 0 9 -4 9 -10z m-140 -90 c0 -5 -5 -10
-11 -10 -5 0 -7 5 -4 10 3 6 8 10 11 10 2 0 4 -4 4 -10z m-30 -30 c0 -5 -7
-10 -16 -10 -8 0 -12 5 -9 10 3 6 10 10 16 10 5 0 9 -4 9 -10z m-835 -122 c3
-3 -11 -9 -32 -13 -21 -4 -164 -49 -318 -100 -154 -51 -327 -107 -385 -125
-344 -105 -705 -219 -950 -300 -96 -32 -236 -77 -310 -100 -74 -23 -162 -50
-195 -60 -193 -61 -260 -80 -269 -76 -20 7 95 52 334 130 129 43 588 194 1020
336 786 259 886 291 970 307 48 10 126 10 135 1z m243 -64 c92 -46 164 -142
310 -414 66 -123 201 -317 264 -378 71 -69 145 -126 231 -178 31 -20 57 -38
57 -41 0 -7 -63 8 -76 18 -6 5 -19 7 -28 3 -21 -8 -82 17 -164 68 -71 45 -136
106 -182 173 -34 50 -210 343 -210 350 0 10 -141 240 -153 250 -28 24 -92 110
-89 121 1 7 -10 22 -24 33 -23 18 -24 21 -7 21 10 0 42 -12 71 -26z m-573
-164 c4 -6 -9 -10 -32 -9 -34 1 -35 2 -13 9 35 11 38 11 45 0z m-2410 -10 c3
-5 1 -10 -4 -10 -6 0 -11 5 -11 10 0 6 2 10 4 10 3 0 8 -4 11 -10z m2302 -22
c-19 -25 -32 -32 -51 -30 -20 2 -24 -1 -20 -13 5 -11 -1 -15 -25 -15 -23 0
-31 -5 -32 -17 0 -10 -3 -13 -5 -7 -3 8 -17 6 -44 -7 -21 -11 -50 -19 -63 -19
-12 0 -28 -5 -35 -12 -9 -9 -15 -9 -24 0 -19 19 -48 15 -48 -8 0 -14 -11 -22
-37 -29 -21 -6 -46 -11 -55 -11 -10 0 -18 -4 -18 -9 0 -5 -12 -11 -27 -14 -94
-19 -128 -28 -133 -38 -4 -5 -11 -9 -16 -8 -21 4 -43 -2 -56 -14 -7 -8 -25
-16 -38 -20 -14 -3 -36 -9 -49 -13 -17 -5 -22 -4 -17 4 5 8 2 10 -8 6 -9 -3
-14 -10 -11 -14 3 -5 -16 -12 -42 -16 -25 -4 -63 -16 -82 -28 -34 -20 -97 -46
-113 -46 -4 0 -5 7 -2 15 4 10 0 15 -15 15 -24 0 -27 -10 -9 -28 7 -7 9 -13 5
-13 -4 -1 -10 -2 -14 -4 -5 -1 -21 -5 -38 -9 -16 -4 -39 -12 -50 -17 -18 -9
-86 -18 -137 -20 -10 0 -18 -7 -18 -15 0 -8 -7 -14 -16 -14 -9 0 -48 -15 -87
-34 -40 -18 -88 -39 -107 -45 -300 -98 -410 -131 -441 -131 -44 0 -69 8 -69
22 0 6 6 8 14 5 8 -3 17 0 20 8 3 8 0 16 -7 18 -7 2 3 11 21 21 17 9 32 12 32
7 0 -6 7 -8 15 -5 8 4 13 10 10 14 -3 4 10 13 28 20 17 6 48 18 67 26 57 22
192 62 235 69 22 4 62 18 88 31 27 13 53 21 59 18 6 -4 13 -3 17 2 11 16 183
67 190 56 4 -7 12 -6 23 2 10 7 15 16 11 20 -3 3 16 3 43 0 30 -3 44 -2 36 3
-9 7 -3 14 22 26 26 12 36 13 40 4 3 -9 7 -8 14 2 6 8 20 12 36 9 14 -3 26 -2
26 2 0 4 9 10 21 13 12 3 18 10 15 16 -3 5 13 14 36 20 85 20 152 41 157 48 3
5 38 16 76 26 99 26 106 27 100 16 -4 -5 1 -9 9 -9 8 0 18 5 21 10 4 6 10 8
15 5 4 -3 26 2 49 10 23 8 41 12 41 9 0 -2 29 12 65 31 53 29 65 33 65 19 0
-11 5 -14 18 -9 9 4 44 17 77 28 33 12 63 26 66 31 4 4 13 6 20 4 8 -3 22 2
32 10 12 11 21 13 25 6 5 -8 18 -7 42 2 l35 12 -29 1 c-16 1 -26 4 -23 8 6 5
55 17 91 22 5 0 -3 -14 -17 -31z m53 -2 c0 -2 -7 -6 -15 -10 -8 -3 -15 -1 -15
4 0 6 7 10 15 10 8 0 15 -2 15 -4z m920 -62 c0 -8 -4 -12 -10 -9 -5 3 -10 10
-10 16 0 5 5 9 10 9 6 0 10 -7 10 -16z m10 -79 c0 -5 -5 -3 -10 5 -5 8 -10 20
-10 25 0 6 5 3 10 -5 5 -8 10 -19 10 -25z m14 -41 c3 -8 2 -12 -4 -9 -6 3 -10
10 -10 16 0 14 7 11 14 -7z m-4017 -330 c-3 -3 -12 -4 -19 -1 -8 3 -5 6 6 6
11 1 17 -2 13 -5z m697 -98 c-3 -9 -14 -16 -24 -16 -11 0 -26 -16 -39 -45 -21
-45 -40 -55 -70 -36 -18 11 -7 27 31 47 17 9 36 20 42 25 34 28 61 47 64 45 1
-2 0 -11 -4 -20z m-740 -48 c9 -12 14 -24 12 -26 -9 -8 -46 19 -46 33 0 22 17
18 34 -7z m1016 -28 c0 -5 -11 -12 -25 -16 -14 -3 -25 -10 -25 -15 0 -5 -7 -9
-15 -9 -23 0 -14 34 10 42 31 10 55 9 55 -2z m-322 -86 c-10 -29 -19 -40 -36
-42 -23 -4 -23 -2 10 41 18 25 34 44 36 42 1 -1 -3 -20 -10 -41z m60 4 c-2
-15 -11 -24 -25 -26 -26 -4 -28 0 -11 28 17 27 40 26 36 -2z m-1168 -109 c0
-5 -4 -9 -10 -9 -5 0 -10 7 -10 16 0 8 5 12 10 9 6 -3 10 -10 10 -16z m20
-124 c0 -16 -46 -65 -60 -65 -15 0 -12 11 13 47 23 34 47 44 47 18z m-39 -193
c-8 -111 9 -94 -251 -258 -96 -60 -215 -138 -265 -171 -92 -62 -222 -133 -243
-133 -20 0 -13 17 14 35 14 9 35 25 47 35 12 10 58 47 102 81 44 35 82 66 85
69 3 3 26 22 52 43 26 21 53 43 60 50 8 7 43 37 78 67 36 30 67 57 70 60 3 3
43 39 90 80 47 41 87 77 90 80 16 17 73 60 75 58 2 -2 0 -45 -4 -96z"/>
<path d="M8650 3056 c0 -22 9 -30 50 -48 28 -12 50 -25 50 -30 0 -4 6 -8 14
-8 7 0 34 -18 59 -40 25 -22 49 -40 54 -40 20 0 163 -157 163 -179 0 -8 3 -11
6 -8 11 10 56 -83 51 -104 -3 -10 0 -17 6 -16 6 1 13 -7 15 -17 3 -14 0 -17
-12 -13 -18 7 -23 -18 -6 -28 6 -3 10 -1 10 4 0 23 19 9 23 -16 4 -26 4 -26 6
4 1 31 -18 102 -42 153 -65 141 -247 321 -392 385 -22 10 -43 20 -47 22 -5 2
-8 -7 -8 -21z"/>
<path d="M8965 2720 c22 -24 25 -25 25 -4 0 8 -4 12 -10 9 -5 -3 -10 -1 -10 4
0 6 -5 11 -12 11 -6 0 -3 -9 7 -20z"/>
<path d="M9000 2690 c0 -5 9 -19 21 -31 11 -11 24 -30 28 -41 8 -21 8 -21 13
5 3 14 1 24 -3 21 -4 -2 -15 9 -24 26 -15 29 -35 41 -35 20z"/>
<path d="M9066 2595 c-3 -8 -1 -15 4 -15 6 0 10 7 10 15 0 8 -2 15 -4 15 -2 0
-6 -7 -10 -15z"/>
<path d="M4395 1920 c-3 -5 1 -10 9 -10 9 0 16 5 16 10 0 6 -4 10 -9 10 -6 0
-13 -4 -16 -10z"/>
<path d="M4448 1913 c6 -2 18 -2 25 0 6 3 1 5 -13 5 -14 0 -19 -2 -12 -5z"/>
<path d="M5125 5875 c-16 -7 -23 -14 -15 -14 8 0 29 6 45 14 17 7 23 14 15 14
-8 0 -28 -6 -45 -14z"/>
<path d="M4986 5819 c-32 -17 -56 -32 -54 -35 3 -2 36 11 74 30 38 19 62 35
54 35 -8 -1 -41 -14 -74 -30z"/>
<path d="M6321 5098 c0 -9 -4 -25 -7 -35 -5 -14 -4 -15 5 -7 7 7 11 22 8 35
-2 13 -5 16 -6 7z"/>
<path d="M4253 5033 c-13 -5 -19 -33 -7 -33 3 0 12 6 20 14 23 23 17 32 -13
19z"/>
<path d="M6296 5025 c-9 -26 -7 -32 5 -12 6 10 9 21 6 23 -2 3 -7 -2 -11 -11z"/>
<path d="M6160 4639 c0 -5 5 -7 10 -4 6 3 10 8 10 11 0 2 -4 4 -10 4 -5 0 -10
-5 -10 -11z"/>
<path d="M3970 4529 c0 -19 86 -127 141 -176 46 -42 109 -88 285 -208 64 -44
122 -85 128 -90 6 -6 37 -28 68 -49 31 -21 67 -49 79 -62 26 -28 49 -31 49 -8
0 36 -198 201 -307 257 -17 9 -39 24 -49 34 -9 10 -25 22 -34 28 -10 5 -44 28
-76 49 -32 22 -76 50 -96 64 -20 13 -71 58 -112 100 -42 42 -76 69 -76 61z"/>
<path d="M4250 4460 c-14 -4 -18 -9 -10 -10 49 -7 75 -21 60 -30 -9 -5 -9 -9
-1 -14 6 -4 11 -2 11 3 0 6 5 11 10 11 6 0 10 -6 10 -14 0 -8 5 -18 12 -22 7
-4 8 -3 4 4 -5 8 -2 10 8 6 9 -3 14 -11 13 -17 -1 -6 7 -13 18 -15 11 -1 25
-13 30 -25 7 -15 18 -21 33 -20 12 2 22 -2 22 -8 0 -6 6 -9 12 -7 7 3 21 -4
32 -14 11 -10 25 -18 32 -18 7 0 34 -11 61 -24 26 -13 64 -27 83 -30 l35 -6
-30 11 c-83 31 -163 75 -273 148 -66 45 -124 86 -127 91 -7 11 -10 11 -45 0z"/>
<path d="M5506 4105 c-11 -8 -15 -15 -9 -15 6 0 16 7 23 15 16 19 11 19 -14 0z"/>
<path d="M4510 3961 c19 -16 37 -27 40 -25 6 6 -52 53 -65 53 -5 0 6 -13 25
-28z"/>
<path d="M5240 3880 c-9 -6 -10 -10 -3 -10 6 0 15 5 18 10 8 12 4 12 -15 0z"/>
<path d="M4645 3870 c3 -5 8 -10 11 -10 2 0 4 5 4 10 0 6 -5 10 -11 10 -5 0
-7 -4 -4 -10z"/>
<path d="M4706 3775 c-15 -32 -34 -68 -44 -80 -9 -11 0 -5 21 14 36 34 63 89
54 114 -2 6 -16 -15 -31 -48z"/>
<path d="M5125 3789 c-4 -6 -5 -12 -2 -15 2 -3 7 2 10 11 7 17 1 20 -8 4z"/>
<path d="M4775 3470 c-3 -5 1 -10 9 -10 9 0 16 5 16 10 0 6 -4 10 -9 10 -6 0
-13 -4 -16 -10z"/>
<path d="M4255 3060 c-3 -5 -1 -10 4 -10 6 0 11 5 11 10 0 6 -2 10 -4 10 -3 0
-8 -4 -11 -10z"/>
<path d="M3976 2825 c-11 -8 -15 -15 -9 -15 6 0 16 7 23 15 16 19 11 19 -14 0z"/>
<path d="M3885 2750 c-3 -5 -2 -10 4 -10 5 0 13 5 16 10 3 6 2 10 -4 10 -5 0
-13 -4 -16 -10z"/>
<path d="M3835 2709 l-20 -21 28 13 c15 7 27 16 27 21 0 13 -14 8 -35 -13z"/>
<path d="M3754 2639 c-19 -22 -19 -22 4 -10 12 6 22 16 22 21 0 15 -5 12 -26
-11z"/>
<path d="M9222 1898 c-7 -7 -12 -16 -12 -21 0 -5 7 -1 16 8 9 9 14 18 12 20
-2 3 -10 -1 -16 -7z"/>
<path d="M2165 1698 c-27 -11 -75 -29 -105 -40 -80 -31 -96 -44 -109 -88 -9
-32 -9 -46 3 -75 17 -40 30 -44 48 -15 7 11 18 20 24 20 6 0 21 12 34 28 12
15 34 39 47 53 24 26 24 28 8 53 -15 23 -15 26 -2 26 9 0 19 -4 22 -10 10 -16
26 -11 23 7 -2 11 7 19 28 25 34 9 68 39 43 37 -8 0 -36 -10 -64 -21z m-80
-88 c3 -5 1 -10 -4 -10 -6 0 -11 5 -11 10 0 6 2 10 4 10 3 0 8 -4 11 -10z
m-91 -86 c10 -25 -1 -29 -14 -5 -6 12 -7 21 -1 21 5 0 12 -7 15 -16z"/>
<path d="M7968 1333 c7 -3 16 -2 19 1 4 3 -2 6 -13 5 -11 0 -14 -3 -6 -6z"/>
<path d="M1700 1103 c-14 -3 -68 -15 -120 -28 -52 -13 -104 -26 -115 -28 -11
-3 2 -5 28 -6 27 0 46 -4 44 -8 -3 -5 8 -23 24 -42 26 -32 30 -34 53 -22 13 7
52 42 87 77 64 65 64 68 -1 57z"/>
<path d="M840 1084 c-14 -8 -18 -14 -10 -14 8 1 24 7 34 15 24 19 10 18 -24
-1z"/>
<path d="M705 1040 c-3 -6 -18 -10 -33 -10 -15 0 -22 -4 -17 -8 6 -4 16 -15
24 -25 12 -15 12 -17 -2 -11 -10 3 -21 -2 -29 -15 -15 -24 -28 -27 -28 -7 0
23 -28 39 -57 31 -21 -5 -24 -8 -12 -16 11 -7 10 -10 -9 -15 -14 -4 -21 -12
-18 -20 4 -11 -3 -13 -37 -8 -30 4 -38 3 -27 -5 23 -16 -16 -27 -43 -12 -28
15 -72 16 -117 3 -19 -5 -80 -22 -135 -37 -55 -15 -102 -29 -104 -31 -7 -6 57
-4 139 6 41 5 118 13 170 19 155 17 230 33 230 48 0 16 57 18 62 2 2 -7 17 -8
41 -4 31 6 37 11 37 34 1 25 1 25 15 7 12 -16 12 -22 2 -28 -7 -4 4 -8 28 -8
22 0 35 4 29 8 -7 4 -17 26 -24 50 -8 23 -19 42 -27 42 -8 0 -12 4 -9 8 2 4
-6 9 -19 10 -13 1 -27 -3 -30 -8z m22 -96 c-3 -3 -12 -4 -19 -1 -8 3 -5 6 6 6
11 1 17 -2 13 -5z"/>
<path d="M808 1031 c8 -4 13 -12 12 -17 -1 -5 3 -10 9 -12 18 -6 13 25 -5 32
-23 9 -31 7 -16 -3z"/>
<path d="M1325 1024 l-60 -13 59 5 c60 6 125 24 81 22 -11 0 -47 -7 -80 -14z"/>
<path d="M1068 973 c6 -2 18 -2 25 0 6 3 1 5 -13 5 -14 0 -19 -2 -12 -5z"/>
<path d="M440 960 c-13 -8 -12 -10 3 -10 9 0 17 5 17 10 0 12 -1 12 -20 0z"/>
<path d="M993 963 c9 -2 23 -2 30 0 6 3 -1 5 -18 5 -16 0 -22 -2 -12 -5z"/>
</g>
</svg>
